<svg width="103" height="101" viewBox="0 0 103 101" fill="none" xmlns="http://www.w3.org/2000/svg">
<g clip-path="url(#clip0)">
<path d="M102.25 42.7905L85.8946 18.3715C85.5258 17.8211 84.8991 17.4895 84.2268 17.4895H18.872C18.2011 17.4895 17.5754 17.8196 17.2063 18.3682L0.824997 42.7143C0.747002 42.8196 0.67938 42.9332 0.622928 43.0547C0.299578 43.7528 0.423253 44.5713 0.939097 45.1479L9.24228 54.4305C9.96817 55.242 11.2281 55.3237 12.0567 54.6131C12.8853 53.9024 12.9687 52.6686 12.243 51.8575L6.8378 45.8143H33.6675L47.1495 90.8821L31.9145 73.8498C31.1888 73.0383 29.9285 72.9567 29.1001 73.6672C28.2715 74.378 28.1881 75.6118 28.9138 76.4229L50.0163 100.015C50.3949 100.438 50.9421 100.681 51.5168 100.681C52.0917 100.681 52.6384 100.438 53.017 100.015L75.484 74.8913C76.2099 74.0797 76.1263 72.8459 75.2973 72.1356C74.4683 71.4248 73.2082 71.5067 72.4829 72.3184L55.8845 90.8795L69.3659 45.8141H96.1844L83.7804 59.6852C83.0545 60.4967 83.1381 61.7305 83.9671 62.4409C84.3455 62.7655 84.8139 62.9246 85.2803 62.9246C85.8352 62.9246 86.3873 62.6991 86.7815 62.258L102.082 45.1477C102.673 44.4879 102.741 43.5239 102.25 42.7905ZM6.14442 41.9084L18.868 22.9981L31.5337 41.9084H6.14442ZM22.5651 21.3956H47.8233L35.1943 40.2512L22.5651 21.3956ZM51.5166 23.0038L64.1783 41.9084H38.8549L51.5166 23.0038ZM51.5166 91.5858L37.8242 45.8143H65.209L51.5166 91.5858ZM67.8716 40.3002L55.2099 21.3956H80.5337L67.8716 40.3002ZM71.5649 41.9084L84.2268 23.0038L96.8883 41.9084H71.5649Z" fill="#1C85E8"/>
<path d="M31.8003 64.5573C26.6552 64.5573 22.4692 60.4586 22.4692 55.421C22.4692 54.3424 21.5761 53.468 20.4746 53.468C19.3731 53.468 18.4801 54.3424 18.4801 55.421C18.4801 60.4586 14.2941 64.5573 9.14898 64.5573C8.04767 64.5573 7.15442 65.4317 7.15442 66.5102C7.15442 67.5887 8.04767 68.4631 9.14898 68.4631C14.2941 68.4631 18.4801 72.5618 18.4801 77.5995C18.4801 78.678 19.3733 79.5524 20.4746 79.5524C21.5759 79.5524 22.4692 78.678 22.4692 77.5995C22.4692 72.5618 26.6552 68.4631 31.8003 68.4631C32.9018 68.4631 33.7948 67.5887 33.7948 66.5102C33.7948 65.4317 32.9018 64.5573 31.8003 64.5573ZM20.4746 70.7409C19.3873 69.0256 17.9056 67.5751 16.154 66.5102C17.9056 65.4456 19.3871 63.995 20.4746 62.2795C21.562 63.9948 23.0437 65.4454 24.7953 66.5102C23.0437 67.5751 21.5622 69.0254 20.4746 70.7409Z" fill="#1C85E8"/>
<path d="M100.582 8.5038C97.2826 8.5038 94.5982 5.87548 94.5982 2.64501C94.5982 1.56649 93.705 0.692078 92.6036 0.692078C91.5023 0.692078 90.6091 1.56649 90.6091 2.64501C90.6091 5.87548 87.9247 8.5038 84.6254 8.5038C83.5241 8.5038 82.6309 9.37821 82.6309 10.4567C82.6309 11.5352 83.5241 12.4097 84.6254 12.4097C87.9247 12.4097 90.6091 15.038 90.6091 18.2684C90.6091 19.347 91.5023 20.2214 92.6036 20.2214C93.705 20.2214 94.5982 19.347 94.5982 18.2684C94.5982 15.038 97.2826 12.4097 100.582 12.4097C101.683 12.4097 102.576 11.5352 102.576 10.4567C102.576 9.37821 101.683 8.5038 100.582 8.5038ZM92.6036 12.4157C92.0345 11.6739 91.3605 11.014 90.6029 10.4567C91.3605 9.8995 92.0345 9.23954 92.6036 8.49774C93.1728 9.23954 93.8468 9.8995 94.6044 10.4567C93.8468 11.0138 93.1726 11.6739 92.6036 12.4157Z" fill="#1C85E8"/>
<path d="M80.7903 66.1889C80.4195 65.8237 79.9049 65.6166 79.3804 65.6166C78.8556 65.6166 78.3433 65.8237 77.9703 66.1889C77.5993 66.5522 77.3859 67.0561 77.3859 67.5696C77.3859 68.083 77.5991 68.587 77.9703 68.9502C78.3414 69.3135 78.8556 69.5225 79.3804 69.5225C79.9051 69.5225 80.4195 69.3135 80.7903 68.9502C81.1614 68.587 81.375 68.083 81.375 67.5696C81.375 67.0561 81.1616 66.5522 80.7903 66.1889Z" fill="#1C85E8"/>
</g>
<defs>
<clipPath id="clip0">
<rect width="102.132" height="100" fill="white" transform="translate(0.444824 0.686768)"/>
</clipPath>
</defs>
</svg>
