<svg width="103" height="101" viewBox="0 0 103 101" fill="none" xmlns="http://www.w3.org/2000/svg">
<g clip-path="url(#clip0)">
<path d="M32.6666 39.672C32.3944 39.1487 31.8616 38.8054 31.2641 38.7671L16.9447 37.8321C16.2027 37.7605 15.5167 38.2104 15.246 38.887L4.92301 64.7184C4.64554 65.4117 4.87195 66.2 5.47795 66.6516C5.78095 66.8781 6.14519 66.9916 6.50763 66.9916C6.86668 66.9916 7.22594 66.8816 7.52894 66.6584L16.0971 60.3673L21.086 61.3438C21.8996 61.5022 22.7131 61.0655 23.0093 60.304C25.6884 53.4328 28.9137 47.0434 32.5918 41.3155C32.9102 40.8184 32.9391 40.1934 32.6666 39.672ZM20.3505 57.8005L16.0171 56.9523C15.544 56.8607 15.0503 56.9706 14.6623 57.2538L10.2727 60.4768L17.9608 41.2383L28.2379 41.9083C25.2763 46.8164 22.6313 52.1459 20.3505 57.8005Z" fill="#1C85E8"/>
<path d="M64.4119 84.3102L63.457 70.2878C63.4161 69.7011 63.0655 69.1796 62.5311 68.9129C61.9983 68.6463 61.36 68.6728 60.8529 68.9861C55.0011 72.5874 48.4771 75.7456 41.4596 78.3686C40.6835 78.6569 40.2341 79.4536 40.3976 80.2518L41.395 85.1365L34.9698 93.5241C34.5136 94.1208 34.5154 94.9407 34.9765 95.5341C35.3051 95.9573 35.8105 96.1923 36.3314 96.1923C36.539 96.1923 36.7485 96.154 36.9525 96.0805L63.3345 85.973C64.0255 85.7084 64.4612 85.035 64.4119 84.3102ZM41.2825 90.838L44.5742 86.54C44.8637 86.1617 44.976 85.6785 44.8806 85.2135L44.0143 80.9721C49.7911 78.7389 55.2325 76.1491 60.2451 73.2493L60.9311 83.3102L41.2825 90.838Z" fill="#1C85E8"/>
<path d="M49.5766 50.6876H38.1081C37.4903 50.6876 36.9218 51.0159 36.6204 51.5443L22.226 76.869C21.8516 77.529 21.9774 78.3555 22.5324 78.879C22.8575 79.1856 23.2846 79.3456 23.7137 79.3456C24.0167 79.3456 24.3213 79.2672 24.5935 79.104L50.4581 63.7785C50.967 63.477 51.2785 62.9369 51.2785 62.3537V52.3542C51.2787 51.4343 50.5162 50.6876 49.5766 50.6876ZM47.8747 61.4153L28.3197 73.0026L39.1075 54.0224V54.0206H47.8747V61.4153Z" fill="#1C85E8"/>
<path d="M102.262 2.29297C102.193 1.48145 101.536 0.838101 100.707 0.769742C100.142 0.726383 44.0911 -3.10503 19.8299 59.1137C19.5899 59.7287 19.7413 60.4219 20.2163 60.8869L28.3095 68.8113C28.6891 69.1829 29.2201 69.3529 29.7529 69.2829C30.2823 69.2079 30.7453 68.8947 31.004 68.4363L39.1126 54.0208H47.8749V61.4352L33.0636 70.5911C32.6261 70.8628 32.3385 71.3128 32.2807 71.8161C32.2228 72.3194 32.4031 72.821 32.7692 73.1794L40.8624 81.1037C41.1876 81.4221 41.6216 81.592 42.0658 81.592C42.2701 81.592 42.476 81.557 42.6734 81.482C106.221 57.7254 102.31 2.84472 102.262 2.29297ZM93.3334 31.8608C87.3608 46.3296 73.6932 66 42.4859 77.9807L36.6818 72.2977L50.4856 63.765C50.9791 63.4584 51.2787 62.9267 51.2787 62.3551V52.3558C51.2787 51.4358 50.5162 50.6892 49.5766 50.6892H38.1047C37.4835 50.6892 36.9132 51.0208 36.6136 51.5524L29.1126 64.8881L23.4057 59.2985C44.7037 6.09938 90.1011 3.92284 98.9263 4.04451C98.9893 7.931 98.625 19.0401 93.3334 31.8608Z" fill="#1C85E8"/>
<path d="M29.3731 74.2942C29.0037 73.8144 28.4149 73.581 27.8378 73.6409C27.8974 73.0743 27.6591 72.4993 27.1705 72.1376C24.6039 70.2378 21.2917 69.6062 18.0799 70.4027C14.6707 71.2509 11.8827 73.5275 10.4325 76.6522L0.370033 98.329C0.0756095 98.9622 0.213446 99.7073 0.715522 100.197C1.04066 100.517 1.47632 100.685 1.91895 100.685C2.15732 100.685 2.39729 100.635 2.62369 100.535L24.7625 90.6812C27.9521 89.263 30.2772 86.5332 31.1435 83.1951C31.9587 80.0538 31.3136 76.8091 29.3731 74.2942ZM27.8448 82.3752C27.2354 84.7268 25.5981 86.6482 23.3548 87.6482L5.34691 95.6626L13.5321 78.029C14.5516 75.8325 16.5158 74.2292 18.9175 73.6327C19.549 73.4761 20.1838 73.3993 20.8101 73.3993C21.8705 73.3993 22.907 73.621 23.8517 74.0526L22.2314 76.8608C21.8552 77.5124 21.9693 78.3307 22.5104 78.859C23.0516 79.3907 23.8874 79.5006 24.5513 79.1323L27.4193 77.544C28.1171 79.0139 28.2754 80.712 27.8448 82.3752Z" fill="#1C85E8"/>
<path d="M102.262 2.29477C102.193 1.48326 101.536 0.839905 100.707 0.771546C100.043 0.719789 84.2647 -0.450122 65.7089 7.91933C65.2034 8.14589 64.8441 8.60252 64.7454 9.13924C64.6467 9.67595 64.8238 10.2258 65.217 10.6107L92.2118 37.0421C92.5335 37.3571 92.9676 37.5304 93.4152 37.5304C93.5155 37.5304 93.6161 37.522 93.7164 37.5054C94.2645 37.4087 94.7291 37.0571 94.9623 36.562C103.512 18.3934 102.317 2.94301 102.262 2.29477ZM92.8636 32.964L69.382 9.97243C82.9661 4.35784 94.8618 3.97112 98.9281 4.03792C98.9961 8.02265 98.6131 19.6335 92.8636 32.964Z" fill="#1C85E8"/>
<path d="M75.3868 27.0846C69.6627 21.4799 60.3508 21.4799 54.6267 27.0846C48.9026 32.6892 48.9026 41.8067 54.6267 47.4113C57.488 50.2144 61.2478 51.6144 65.0059 51.6144C68.7658 51.6144 72.5239 50.2129 75.3868 47.4113C81.1109 41.8067 81.1109 32.689 75.3868 27.0846ZM72.9801 45.0547C68.5837 49.3593 61.43 49.3593 57.0336 45.0547C52.6372 40.7501 52.6372 33.7456 57.0336 29.441C59.231 27.2895 62.1193 26.2129 65.0061 26.2129C67.8929 26.2129 70.7813 27.2895 72.9803 29.441C77.3765 33.7456 77.3765 40.7501 72.9801 45.0547Z" fill="#1C85E8"/>
<path d="M68.3896 40.5618C66.5241 42.3916 63.4878 42.3899 61.6205 40.5618C59.755 38.7337 59.755 35.7622 61.6205 33.9339C63.486 32.1074 66.5223 32.1058 68.3896 33.9339C69.0535 34.5855 70.1326 34.5855 70.7963 33.9339C71.4617 33.2823 71.4617 32.229 70.7963 31.5775C67.6049 28.4511 62.4068 28.4511 59.2138 31.5775C56.0206 34.7038 56.0206 39.7919 59.2138 42.9182C60.8104 44.4815 62.9091 45.2631 65.0059 45.2631C67.1046 45.2631 69.2015 44.4815 70.7963 42.9182C71.4617 42.2666 71.4617 41.2133 70.7963 40.5618C70.1324 39.9102 69.0535 39.9102 68.3896 40.5618Z" fill="#1C85E8"/>
</g>
<defs>
<clipPath id="clip0">
<rect width="102.132" height="100" fill="white" transform="translate(0.216827 0.686768)"/>
</clipPath>
</defs>
</svg>
